<svg width="80" height="67" viewBox="0 0 80 67" fill="none" xmlns="http://www.w3.org/2000/svg">
<path d="M0.0221887 25.4463C0.0111454 25.294 0.00838463 25.1388 0.000102198 24.9837C-0.00541942 25.1195 0.215445 25.5654 0.0221887 25.4463Z" fill="#4F7CE3"/>
<path d="M40.8243 66.9999C41.8623 65.0804 43.2289 63.3548 44.5928 61.6597C44.59 61.6624 44.59 61.6624 44.5872 61.6652C44.5983 61.6514 44.6121 61.6347 44.6231 61.6209C44.6231 61.6237 44.6204 61.6237 44.6204 61.6264C47.0526 58.7402 49.7527 56.0923 52.5246 53.5357C52.5218 53.5385 52.5191 53.5412 52.5163 53.5412C56.155 49.9266 81.9742 24.0257 72.9159 23.6573C53.1706 24.8566 33.036 31.5874 17.3021 43.7664C17.3077 43.7609 17.3104 43.7581 17.3159 43.7526C16.8245 44.2151 16.3055 44.6749 15.9052 45.2261C15.9052 45.2261 15.9052 45.2234 15.9079 45.2234C15.8748 45.2704 15.8444 45.3231 15.8168 45.3729C15.8058 45.3979 15.7947 45.42 15.7837 45.4422C15.7699 45.4893 15.7533 45.5363 15.7478 45.5834C15.9797 44.6278 17.3518 43.3149 18.0752 42.315C18.0724 42.3178 18.0724 42.3205 18.0696 42.3233C30.2283 28.0946 48.8803 21.4912 66.936 18.9818C93.4288 13.8548 72.7503 37.6118 64.6942 46.2676C57.7701 53.8819 48.0024 58.214 41.4482 66.2438C41.451 66.241 41.4537 66.2382 41.4565 66.2355C41.2467 66.4875 41.0396 66.7617 40.8243 66.9999Z" fill="#F1D433"/>
<path d="M41.3405 66.6562C41.3074 66.6091 41.2743 66.5648 41.2384 66.5232C41.2384 66.5232 41.2384 66.5232 41.2411 66.526C39.2009 64.5982 36.6582 63.277 34.3032 61.7812C34.3143 61.7868 34.3253 61.7923 34.3363 61.8006C26.0898 58.9117 20.2866 50.8902 14.9113 45.5527C14.9085 45.5527 14.9085 45.5499 14.9058 45.5499C24.1655 51.5965 37.434 55.2361 41.3405 66.6562Z" fill="#F1D433"/>
<path d="M37.6604 61.0971C36.7742 57.6652 41.2688 54.9674 42.8507 52.1698C42.8286 52.1975 42.8065 52.2225 42.7845 52.2502C42.7983 52.2336 42.8121 52.2169 42.8259 52.2003C42.8231 52.2031 42.8231 52.2031 42.8203 52.2059C42.8424 52.1782 42.8645 52.1532 42.8866 52.1255C42.8756 52.1394 42.8645 52.1505 42.8535 52.1643C42.9253 52.0784 42.997 51.9926 43.0716 51.9039C43.0274 51.9566 42.9832 52.0092 42.9391 52.0618C43.0771 51.8984 43.2124 51.7322 43.3504 51.5688C43.3477 51.5716 43.3477 51.5743 43.3449 51.5743C43.378 51.5356 43.4084 51.4968 43.4415 51.458C43.4305 51.4691 43.4222 51.4829 43.4112 51.494C43.5133 51.3721 43.6155 51.2503 43.7149 51.1284C43.7066 51.1395 43.6983 51.1478 43.69 51.1589C50.3298 43.4337 58.0131 36.7058 65.0366 29.3629C52.8918 33.839 41.1031 43.7246 33.0139 54.5658C20.2038 56.826 55.6498 26.9836 59.6033 27.0362C46.1278 30.7173 32.2602 36.0715 21.6394 45.4502C27.023 38.0076 57.3422 18.2558 66.5523 25.1001C68.8576 23.0227 74.0589 22.9617 71.4306 27.1248C71.4417 27.111 71.4527 27.0971 71.4638 27.0833C71.0883 27.5514 70.6825 27.989 70.2877 28.4377C71.4941 26.3991 76.2455 22.2637 75.4034 27.3437C73.5206 29.9473 63.3663 41.0766 65.8869 37.7084C62.6733 40.9242 59.1533 43.7744 55.81 46.8434C55.8127 46.8406 55.8183 46.8351 55.821 46.8323C55.8127 46.8379 55.8072 46.8462 55.7989 46.8517C55.8072 46.8434 55.8182 46.8351 55.8265 46.8268C55.8238 46.8296 55.8182 46.8351 55.8155 46.8379C55.8652 46.7908 55.9149 46.7465 55.9646 46.6994C55.8928 46.7659 55.821 46.8323 55.7465 46.9016C55.752 46.896 55.7575 46.8905 55.763 46.885C55.7437 46.9016 55.7271 46.9182 55.7078 46.9348C55.7133 46.9293 55.7161 46.9265 55.7216 46.921C55.6968 46.9459 55.6692 46.9708 55.6443 46.993C55.6498 46.9875 55.6554 46.9819 55.6609 46.9764C55.4179 47.2007 55.175 47.4251 54.932 47.6522C54.9596 47.6273 54.9845 47.6024 55.0121 47.5774C54.9182 47.6633 54.8244 47.7519 54.7305 47.8378C54.7636 47.8073 54.794 47.7796 54.8271 47.7492C54.6421 47.9209 54.4572 48.0926 54.2694 48.2644C54.3219 48.2145 54.3743 48.1674 54.4268 48.1176C54.3274 48.209 54.228 48.3004 54.1286 48.3945C54.1342 48.389 54.1397 48.3835 54.1452 48.3779C54.0927 48.4278 54.0403 48.4749 53.9851 48.5247C54.0016 48.5081 54.0182 48.4943 54.0348 48.4776C53.9878 48.5219 53.9381 48.5663 53.8912 48.6106C53.8995 48.6023 53.9078 48.5967 53.9133 48.5884C50.0758 50.4802 40.9513 65.6452 37.6604 61.0971ZM55.1446 42.9573C56.0308 42.1762 56.9253 41.4034 57.7977 40.6085C57.7839 40.6223 57.7701 40.6362 57.7536 40.65C57.7619 40.6417 57.7701 40.6334 57.7784 40.6279C57.7315 40.6694 57.6873 40.7137 57.6404 40.7553C59.1312 39.3897 60.5972 38.0048 62.0356 36.5839C59.6447 38.5948 57.414 40.7968 55.1446 42.9573Z" fill="#F1D433"/>
<path d="M28.8947 53.696C32.3568 45.3449 39.4935 39.2679 46.7296 34.2074C38.9248 38.2569 31.0316 42.6499 24.7011 48.8488L24.7038 48.846C24.563 49.015 24.4305 49.1923 24.3394 49.3945C24.3311 49.4194 24.3201 49.4471 24.3118 49.4748C24.3063 49.5025 24.298 49.5302 24.2925 49.5579C30.2227 41.8438 39.372 36.005 47.867 31.1273C50.4484 30.1966 53.1291 28.3463 55.9258 28.6455C58.3995 29.698 55.8375 31.4763 54.3439 31.8641C54.3522 31.8585 54.3632 31.8557 54.3715 31.8502C54.0098 32.0413 53.6454 32.2269 53.281 32.418C53.2837 32.4153 53.2865 32.4153 53.2893 32.4125C43.7258 37.4398 34.5185 44.3035 28.8947 53.696Z" fill="#F1D433"/>
<path d="M36.0645 52.9124C42.5192 44.9047 50.7243 38.2543 59.8378 33.5344C59.846 33.5317 59.8516 33.5261 59.8599 33.5234C59.8571 33.5234 59.8543 33.5261 59.8543 33.5261C64.5173 31.3103 43.665 44.636 39.9572 48.9487C39.96 48.9459 39.9655 48.9404 39.9682 48.9376C39.9627 48.9432 39.9572 48.9487 39.9517 48.9515C39.9517 48.9515 39.9517 48.9515 39.9544 48.9487C38.6127 50.2201 37.2488 51.5025 36.0645 52.9124Z" fill="#F1D433"/>
<path d="M25.7778 53.3C27.9726 48.4251 30.3497 43.5446 33.9388 39.5311C28.9086 42.2982 24.2317 45.8602 19.2236 48.5525C14.9306 47.2147 28.7898 38.0686 28.8147 38.7971C28.8174 38.7971 28.8174 38.7971 28.8202 38.7943C28.003 39.1045 27.368 39.7305 26.7248 40.3066C26.733 40.3011 26.7386 40.2928 26.7468 40.2873C25.8523 41.1514 24.9578 42.0212 24.0882 42.9131C28.7098 40.8191 36.2081 33.7698 40.6337 34.4955C41.2991 36.8222 37.5637 37.6947 36.4345 39.3621C31.9234 43.2178 28.7098 48.2063 25.7778 53.3Z" fill="#F1D433"/>
<path d="M15.585 42.481C17.5534 38.4537 20.8747 35.2711 24.5493 32.7976C24.5438 32.8004 24.5383 32.8059 24.5327 32.8087C24.5742 32.7782 24.6156 32.7505 24.657 32.7201C24.6377 32.7339 24.6183 32.7478 24.599 32.7616C39.3969 22.6378 59.6475 15.5054 77.0931 18.4138C77.0434 18.3833 76.9881 18.3556 76.9329 18.3307C76.9329 18.3307 76.9329 18.3307 76.9357 18.3307C76.897 18.3141 76.8556 18.2974 76.8142 18.2864C76.621 18.2282 76.4222 18.2199 76.2234 18.2088C76.2289 18.2088 76.2317 18.2088 76.2372 18.2088C66.9581 18.5495 58.2698 23.0893 49.5761 26.0419C49.681 26.0032 49.7831 25.9616 49.888 25.9228C44.3167 28.1941 38.4334 29.5486 32.7903 31.6315C32.8124 31.6232 32.8317 31.6149 32.8538 31.6066C26.6116 34.2767 19.8035 36.8776 15.585 42.481Z" fill="#4F7CE3"/>
<path d="M14.9886 41.5339C5.60188 35.9416 -1.96826 25.0727 3.26899 14.0459C3.2193 14.1511 3.17237 14.2564 3.12267 14.3616C7.29978 5.28759 20.2756 0.407113 29.1323 5.34576C29.0605 5.30144 28.9887 5.25436 28.9169 5.21004C29.1544 5.35961 29.3918 5.51195 29.6265 5.66153C29.5574 5.61721 29.4884 5.57289 29.4194 5.52857C35.3165 8.33443 37.9696 14.1068 40.4709 19.7545C37.4202 16.2728 34.9907 12.0654 30.5789 10.1321C30.5955 10.1404 30.6093 10.1459 30.6259 10.1542C10.1379 2.26845 -1.80814 27.5545 14.7954 41.3179C14.9031 41.4203 15.0052 41.5505 15.1488 41.5948C15.2178 41.6142 15.019 41.5782 14.9886 41.5339Z" fill="#4F7CE3"/>
<path d="M76.9218 17.9817C73.5647 -0.773003 50.6058 3.94129 41.382 15.439C41.3847 15.4362 41.3875 15.4334 41.3875 15.4306C41.3792 15.439 41.3737 15.45 41.3654 15.4583C41.3654 15.4583 41.3654 15.4556 41.3682 15.4556C41.3626 15.4639 41.3544 15.4722 41.3461 15.4805C40.9596 15.9486 40.5786 16.4167 40.1948 16.8848C40.1976 16.882 40.2003 16.8793 40.2031 16.8737C40.0292 17.0843 39.8414 17.292 39.6923 17.5219C39.6923 17.5219 39.6923 17.5191 39.6951 17.5191C39.6647 17.5745 39.5902 17.677 39.6758 17.7075C40.6283 15.2229 42.4504 12.2702 44.2532 10.0073C44.2477 10.0156 44.2422 10.0211 44.2339 10.0294C53.963 -5.14384 78.1228 -3.39052 76.955 17.2864C76.955 17.2864 76.955 17.2864 76.955 17.2837C76.9495 17.4443 76.9384 17.605 76.9329 17.7629C76.9329 17.7601 76.9329 17.7601 76.9329 17.7573C76.9218 17.8349 76.9274 17.9097 76.9218 17.9817Z" fill="#4F7CE3"/>
<path d="M14.5688 41.3926C9.40057 38.487 18.1496 29.6955 20.1843 26.2941C20.1539 26.3329 20.1208 26.3716 20.0904 26.4076C22.9037 22.2501 29.9465 17.2505 30.7306 13.5361C21.2665 17.4084 14.9829 25.8869 8.37079 33.1162C0.234679 31.8144 16.1756 13.4143 19.8337 11.2371C14.0443 13.5334 9.57726 18.0455 5.67624 22.7736C5.62102 22.8595 5.56856 22.9509 5.52991 23.0395C5.50507 23.1198 5.46917 23.2389 5.56304 23.2805C5.57685 23.286 5.59065 23.2888 5.60445 23.2943C6.12073 20.9926 9.1162 18.7296 10.5573 16.5359C10.5491 16.547 10.5408 16.558 10.5297 16.5691C11.7583 14.0098 27.9394 1.6119 25.2531 9.98517C25.289 9.94086 25.3249 9.89931 25.3608 9.85499C23.8424 11.5612 21.9623 12.8991 20.2892 14.4446C20.3334 14.4031 20.3748 14.3643 20.4162 14.3228C17.5698 16.7713 15.5296 19.9234 13.5418 23.0727C15.8802 19.9234 37.1357 2.48717 33.7343 14.6995C29.3143 20.6796 23.1052 25.1668 19.287 31.6316C21.4487 27.5184 46.7571 6.29019 36.8789 22.721C36.9038 22.6905 36.9286 22.66 36.9535 22.6296C36.8237 22.7874 36.6912 22.9481 36.5614 23.106C36.5945 23.0644 36.6304 23.0229 36.6636 22.9841C36.4814 23.2057 36.2991 23.4245 36.1169 23.6433C36.1418 23.6129 36.1666 23.5824 36.1915 23.5547C36.1749 23.5741 36.1583 23.5935 36.1418 23.6129C36.1501 23.6046 36.1583 23.5935 36.1639 23.5852C35.5896 24.2859 35.0126 24.9867 34.4798 25.718C40.4901 19.6021 44.957 12.1152 51.7321 6.71397C64.0784 -1.60667 50.9232 14.6884 48.1264 17.4056C58.151 6.94941 72.071 -5.28781 55.7822 17.6881C58.9958 14.7936 61.9139 11.5834 65.0171 8.57255C64.9812 8.60578 64.9481 8.63902 64.9122 8.66949C71.632 2.68383 68.8657 11.4033 65.583 14.2064C67.0076 12.8935 68.4101 11.5446 69.9617 10.3813C69.9562 10.384 69.9534 10.3868 69.9479 10.3923C75.5634 6.64473 72.0323 13.2896 70.3593 15.4335C71.7203 14.3089 73.1808 13.3173 74.6523 12.3451L74.6496 12.3479C77.1343 12.3423 73.0207 16.8156 72.4437 18.0067C73.1615 16.5193 73.8903 15.0069 74.4784 13.453C71.7176 16.3448 64.9563 22.7016 68.8408 13.9378C66.1048 16.2949 64.28 20.0951 60.9173 21.5466C56.8009 21.3194 60.1305 16.7353 61.4584 15.0512C58.8329 19.1451 48.6648 26.1916 54.2334 16.0345C54.2085 16.0733 54.1837 16.1121 54.1588 16.1509C55.4454 14.1178 56.7926 12.1235 58.1813 10.1569C52.7701 14.7466 48.4743 20.4525 43.5518 25.5019C36.0203 26.0586 49.1038 12.6941 50.763 10.4422C49.9044 11.2067 49.032 11.9573 48.1679 12.719C48.1982 12.6913 48.2286 12.6636 48.259 12.6332C41.3266 18.4775 36.6028 30.1276 28.7069 33.3406C26.8958 28.7703 33.6046 24.0893 35.6614 20.1256C26.1532 24.5269 21.0153 34.299 14.5688 41.3926Z" fill="#4F7CE3"/>
<path d="M9.66007 11.3287C9.66007 11.3287 9.65731 11.3287 9.66007 11.3287C9.65731 11.3287 9.66007 11.3287 9.66007 11.3287ZM35.7442 34.8891C35.5592 34.8531 35.6697 34.9999 35.7056 35.1107C35.7166 35.0359 35.7276 34.9611 35.7442 34.8891ZM53.2229 22.9039C53.7585 23.3249 52.6266 24.0036 52.2732 24.1891C50.9038 25.0395 49.9569 26.6238 49.0872 28.0115C46.8344 34.1662 44.6534 37.8944 39.3222 41.8109C35.9734 44.7525 36.4952 53.6105 31.0812 53.292C28.4501 51.7409 29.8002 47.7772 27.0228 46.2261C20.9849 40.2848 32.3953 41.0769 35.0651 38.6118C37.108 33.3823 33.4472 35.4043 30.0349 33.7895C21.8187 29.4075 13.9421 22.9538 10.4165 14.0985C9.6932 13.1319 10.146 11.65 9.1438 10.8938C11.2006 12.0627 13.5142 12.6388 15.7974 13.2565C24.458 15.0181 35.0982 15.417 40.2692 23.7626C43.1073 30.8119 46.5335 16.1095 53.2229 22.9039Z" fill="white"/>
</svg>
