<svg width="180" height="151" viewBox="0 0 180 151" fill="none" xmlns="http://www.w3.org/2000/svg">
<path d="M0.0496804 57.3491C0.0248331 57.0058 0.0186213 56.6562 -1.41949e-05 56.3066C-0.0124378 56.6125 0.484508 57.6175 0.0496804 57.3491Z" fill="#4F7CE3"/>
<path d="M91.8541 151C94.1898 146.674 97.2646 142.785 100.333 138.964C100.327 138.971 100.327 138.971 100.321 138.977C100.346 138.946 100.377 138.908 100.402 138.877C100.402 138.883 100.395 138.883 100.395 138.889C105.868 132.385 111.943 126.417 118.18 120.655C118.174 120.661 118.167 120.668 118.161 120.668C126.348 112.521 184.441 54.1474 164.06 53.3171C119.633 56.0201 74.3306 71.1894 38.9294 98.6377C38.9418 98.6253 38.948 98.619 38.9604 98.6065C37.8547 99.649 36.6869 100.685 35.7862 101.928C35.7862 101.928 35.7862 101.921 35.7924 101.921C35.7179 102.027 35.6495 102.146 35.5874 102.258C35.5626 102.315 35.5377 102.365 35.5129 102.414C35.4818 102.521 35.4446 102.627 35.4321 102.733C35.9539 100.579 39.0412 97.6202 40.6687 95.3667C40.6625 95.3729 40.6625 95.3792 40.6563 95.3854C68.0132 63.3176 109.98 48.4355 150.606 42.7798C210.214 31.2249 163.688 84.7669 145.562 104.275C129.982 121.435 108.005 131.199 93.258 149.296C93.2642 149.289 93.2704 149.283 93.2767 149.277C92.8046 149.845 92.3387 150.463 91.8541 151Z" fill="#F1D433"/>
<path d="M93.0158 150.225C92.9413 150.119 92.8667 150.019 92.786 149.925C92.786 149.925 92.786 149.925 92.7922 149.932C88.2016 145.587 82.4805 142.609 77.1819 139.238C77.2067 139.251 77.2316 139.263 77.2564 139.282C58.7017 132.771 45.6444 114.693 33.55 102.663C33.5438 102.663 33.5438 102.657 33.5376 102.657C54.3721 116.285 84.2261 124.487 93.0158 150.225Z" fill="#F1D433"/>
<path d="M84.7355 137.696C82.7415 129.962 92.8543 123.882 96.4137 117.577C96.364 117.639 96.3143 117.695 96.2646 117.758C96.2957 117.72 96.3267 117.683 96.3578 117.645C96.3516 117.652 96.3516 117.652 96.3454 117.658C96.3951 117.596 96.4447 117.539 96.4944 117.477C96.4696 117.508 96.4447 117.533 96.4199 117.564C96.5814 117.371 96.7429 117.177 96.9106 116.978C96.8112 117.096 96.7119 117.215 96.6125 117.333C96.9231 116.965 97.2274 116.591 97.538 116.222C97.5318 116.228 97.5318 116.235 97.5256 116.235C97.6001 116.147 97.6685 116.06 97.743 115.972C97.7182 115.997 97.6995 116.029 97.6747 116.054C97.9045 115.779 98.1344 115.504 98.358 115.23C98.3394 115.255 98.3207 115.273 98.3021 115.298C113.242 97.888 130.529 82.7249 146.332 66.176C119.006 76.2639 92.4816 98.5434 74.281 122.977C45.4581 128.07 125.212 60.8137 134.107 60.9323C103.787 69.2286 72.5851 81.2954 48.6882 102.433C60.8013 85.6589 129.02 41.1436 149.742 56.5688C154.929 51.8869 166.632 51.7496 160.718 61.1321C160.743 61.1009 160.768 61.0697 160.793 61.0384C159.948 62.0934 159.035 63.0797 158.147 64.091C160.861 59.4965 171.552 50.1765 169.657 61.6252C165.421 67.4932 142.574 92.5756 148.245 84.9847C141.015 92.2323 133.095 98.6558 125.572 105.572C125.578 105.566 125.591 105.554 125.597 105.548C125.578 105.56 125.566 105.579 125.547 105.591C125.566 105.572 125.591 105.554 125.609 105.535C125.603 105.541 125.591 105.554 125.584 105.56C125.696 105.454 125.808 105.354 125.92 105.248C125.758 105.398 125.597 105.548 125.429 105.704C125.442 105.691 125.454 105.679 125.466 105.666C125.423 105.704 125.386 105.741 125.342 105.778C125.355 105.766 125.361 105.76 125.373 105.747C125.317 105.803 125.255 105.86 125.199 105.91C125.212 105.897 125.224 105.885 125.237 105.872C124.69 106.378 124.143 106.883 123.597 107.395C123.659 107.339 123.715 107.283 123.777 107.227C123.566 107.42 123.354 107.62 123.143 107.814C123.218 107.745 123.286 107.682 123.361 107.614C122.944 108.001 122.528 108.388 122.106 108.775C122.224 108.663 122.342 108.556 122.46 108.444C122.236 108.65 122.013 108.856 121.789 109.068C121.801 109.056 121.814 109.043 121.826 109.031C121.708 109.143 121.59 109.249 121.466 109.362C121.503 109.324 121.541 109.293 121.578 109.256C121.472 109.355 121.36 109.455 121.255 109.555C121.273 109.536 121.292 109.524 121.304 109.505C112.67 113.769 92.1399 147.947 84.7355 137.696ZM124.075 96.8143C126.069 95.0539 128.082 93.3122 130.045 91.5206C130.013 91.5518 129.982 91.583 129.945 91.6142C129.964 91.5955 129.982 91.5768 130.001 91.5643C129.895 91.6579 129.796 91.7578 129.69 91.8515C133.045 88.7739 136.343 85.6526 139.58 82.4502C134.2 86.9823 129.181 91.9451 124.075 96.8143Z" fill="#F1D433"/>
<path d="M65.0128 121.016C72.8024 102.195 88.86 88.4992 105.141 77.0942C87.5804 86.2207 69.8208 96.1213 55.5771 110.092L55.5833 110.086C55.2665 110.467 54.9683 110.866 54.7633 111.322C54.7447 111.378 54.7198 111.44 54.7012 111.503C54.6888 111.565 54.6701 111.628 54.6577 111.69C68.0007 94.3048 88.5867 81.1456 107.7 70.1525C113.509 68.055 119.54 63.885 125.833 64.5592C131.399 66.9314 125.634 70.9391 122.273 71.813C122.292 71.8005 122.317 71.7943 122.336 71.7818C121.522 72.2125 120.702 72.6308 119.882 73.0615C119.888 73.0553 119.894 73.0553 119.9 73.049C98.3827 84.3792 77.6663 99.8481 65.0128 121.016Z" fill="#F1D433"/>
<path d="M81.145 119.25C95.6683 101.203 114.13 86.2149 134.635 75.5776C134.654 75.5714 134.666 75.5589 134.685 75.5527C134.678 75.5527 134.672 75.5589 134.672 75.5589C145.164 70.5649 98.2462 100.598 89.9037 110.317C89.9099 110.311 89.9223 110.298 89.9285 110.292C89.9161 110.305 89.9037 110.317 89.8913 110.323C89.8913 110.323 89.8913 110.323 89.8975 110.317C86.8785 113.183 83.8099 116.073 81.145 119.25Z" fill="#F1D433"/>
<path d="M57.9997 120.124C62.9381 109.137 68.2865 98.1378 76.3619 89.0924C65.0439 95.3287 54.5211 103.357 43.2529 109.424C33.5935 106.409 64.7768 85.7964 64.8327 87.4382C64.8389 87.4382 64.839 87.4382 64.8452 87.4319C63.0065 88.1311 61.5777 89.5419 60.1304 90.8403C60.149 90.8279 60.1614 90.8091 60.1801 90.7966C58.1674 92.7443 56.1548 94.7045 54.1981 96.7145C64.5967 91.9952 81.468 76.108 91.4256 77.7436C92.9226 82.9873 84.518 84.9537 81.9774 88.7116C71.8272 97.4012 64.5967 108.644 57.9997 120.124Z" fill="#F1D433"/>
<path d="M35.0657 95.7409C39.4947 86.6643 46.9675 79.4916 55.2355 73.9171C55.223 73.9233 55.2106 73.9358 55.1982 73.942C55.2914 73.8734 55.3845 73.811 55.4777 73.7423C55.4342 73.7735 55.3908 73.8047 55.3473 73.8359C88.6426 51.0196 134.206 34.9451 173.459 41.4997C173.347 41.4311 173.223 41.3686 173.099 41.3125C173.099 41.3125 173.099 41.3125 173.105 41.3125C173.018 41.275 172.925 41.2376 172.831 41.2126C172.397 41.0815 171.949 41.0628 171.502 41.0378C171.515 41.0378 171.521 41.0378 171.533 41.0378C150.655 41.8056 131.107 52.0371 111.546 58.6916C111.782 58.6042 112.012 58.5106 112.248 58.4232C99.7121 63.542 86.4747 66.5946 73.7777 71.289C73.8274 71.2702 73.8709 71.2515 73.9206 71.2328C59.8757 77.2506 44.5573 83.1123 35.0657 95.7409Z" fill="#4F7CE3"/>
<path d="M33.7239 93.6063C12.6037 81.0026 -4.42908 56.507 7.35475 31.6556C7.24294 31.8928 7.13734 32.1301 7.02552 32.3673C16.424 11.9168 45.6196 0.917525 65.5471 12.0479C65.3856 11.948 65.2241 11.8419 65.0626 11.742C65.5968 12.0791 66.131 12.4225 66.659 12.7596C66.5037 12.6597 66.3484 12.5598 66.1931 12.4599C79.4616 18.7836 85.4312 31.793 91.0591 44.5214C84.195 36.6746 78.7286 27.1922 68.8021 22.835C68.8394 22.8537 68.8704 22.8662 68.9077 22.8849C22.8098 5.11249 -4.06879 62.1003 33.2891 93.1193C33.5314 93.3503 33.7612 93.6437 34.0842 93.7436C34.2395 93.7873 33.7923 93.7061 33.7239 93.6063Z" fill="#4F7CE3"/>
<path d="M173.074 40.5259C165.52 -1.74214 113.863 8.88261 93.1091 34.7953C93.1153 34.789 93.1215 34.7828 93.1215 34.7765C93.1029 34.7953 93.0905 34.8202 93.0718 34.839C93.0718 34.839 93.0718 34.8327 93.0781 34.8327C93.0656 34.8514 93.047 34.8702 93.0284 34.8889C92.1587 35.9439 91.3015 36.9989 90.438 38.0539C90.4442 38.0476 90.4504 38.0414 90.4567 38.0289C90.0653 38.5033 89.6429 38.9715 89.3075 39.4896C89.3075 39.4896 89.3075 39.4834 89.3137 39.4834C89.2454 39.6082 89.0776 39.8392 89.2702 39.9079C91.4133 34.3083 95.5131 27.6538 99.5694 22.5537C99.557 22.5724 99.5446 22.5849 99.5259 22.6036C121.416 -11.5928 175.776 -7.64131 173.148 38.959C173.148 38.959 173.148 38.959 173.148 38.9528C173.136 39.3148 173.111 39.6769 173.099 40.0327C173.099 40.0265 173.099 40.0265 173.099 40.0202C173.074 40.195 173.086 40.3636 173.074 40.5259Z" fill="#4F7CE3"/>
<path d="M32.7798 93.2877C21.1513 86.7393 40.8365 66.9256 45.4147 59.2598C45.3463 59.3472 45.2718 59.4346 45.2035 59.5157C51.5333 50.1457 67.3797 38.878 69.1438 30.5068C47.8497 39.2338 33.7116 58.3421 18.8343 74.6351C0.528028 71.7011 36.3951 30.2321 44.6258 25.3255C31.5996 30.5006 21.5488 40.6696 12.7715 51.3256C12.6473 51.5191 12.5293 51.7251 12.4423 51.9249C12.3864 52.1059 12.3056 52.3743 12.5168 52.4679C12.5479 52.4804 12.579 52.4867 12.61 52.4992C13.7716 47.3116 20.5115 42.2115 23.754 37.2674C23.7354 37.2924 23.7168 37.3174 23.6919 37.3423C26.4562 31.5743 62.8637 3.63279 56.8196 22.5039C56.9003 22.404 56.9811 22.3104 57.0618 22.2105C53.6453 26.0559 49.4151 29.071 45.6507 32.5543C45.7501 32.4607 45.8433 32.3733 45.9364 32.2797C39.5321 37.798 34.9415 44.902 30.469 51.9998C35.7304 44.902 83.5552 5.60543 75.9023 33.1287C65.9572 46.6062 51.9868 56.7191 43.3958 71.2891C48.2597 62.019 105.203 14.1764 82.9776 51.207C83.0335 51.1383 83.0894 51.0696 83.1453 51.001C82.8533 51.3568 82.5552 51.7188 82.2632 52.0747C82.3377 51.981 82.4185 51.8874 82.493 51.8C82.083 52.2994 81.6731 52.7926 81.2631 53.2857C81.319 53.217 81.3749 53.1484 81.4308 53.086C81.3935 53.1297 81.3563 53.1734 81.319 53.217C81.3376 53.1983 81.3563 53.1734 81.3687 53.1546C80.0766 54.734 78.7784 56.3133 77.5795 57.9614C91.1026 44.1779 101.153 27.3044 116.397 15.1315C144.176 -3.62101 114.577 33.1037 108.285 39.2276C130.84 15.6621 162.16 -11.9173 125.51 39.8643C132.74 33.3409 139.306 26.1058 146.288 19.3202C146.208 19.3951 146.133 19.47 146.052 19.5387C161.172 6.04864 154.948 25.7001 147.562 32.0175C150.767 29.0585 153.923 26.0184 157.414 23.3966C157.401 23.4028 157.395 23.4091 157.383 23.4215C170.018 14.9754 162.073 29.9512 158.308 34.7829C161.371 32.2485 164.657 30.0136 167.968 27.8225L167.961 27.8288C173.552 27.8163 164.297 37.8979 162.998 40.5822C164.613 37.23 166.253 33.8216 167.576 30.3195C161.365 36.8367 146.152 51.1633 154.892 31.412C148.736 36.7243 144.63 45.2891 137.064 48.5601C127.802 48.0483 135.294 37.7169 138.281 33.9215C132.374 43.1479 109.496 59.0288 122.025 36.1375C121.969 36.2249 121.913 36.3123 121.857 36.3997C124.752 31.8177 127.783 27.3231 130.908 22.8909C118.733 33.2348 109.067 46.0943 97.9915 57.4744C81.0457 58.7292 110.483 28.6091 114.217 23.5339C112.285 25.2568 110.322 26.9486 108.378 28.6653C108.446 28.6028 108.514 28.5404 108.583 28.4717C92.9848 41.6434 82.3564 67.8994 64.5906 75.1407C60.5156 64.8406 75.6103 54.2908 80.2381 45.3577C58.8446 55.2771 47.2844 77.3007 32.7798 93.2877Z" fill="#4F7CE3"/>
<path d="M21.7351 25.5318C21.7351 25.5318 21.7289 25.5318 21.7351 25.5318C21.7289 25.5318 21.7351 25.5318 21.7351 25.5318ZM80.4244 78.6306C80.0082 78.5495 80.2567 78.8803 80.3374 79.13C80.3623 78.9615 80.3871 78.7929 80.4244 78.6306ZM119.751 51.6193C120.957 52.5681 118.41 54.0976 117.615 54.5158C114.534 56.4323 112.403 60.003 110.446 63.1305C105.377 77.0013 100.47 85.4037 88.4749 94.2306C80.94 100.86 82.114 120.824 69.9326 120.106C64.0128 116.61 67.0504 107.677 60.8013 104.181C47.216 90.791 72.8895 92.5764 78.8963 87.0206C83.493 75.2347 75.2562 79.7917 67.5784 76.1523C49.092 66.2767 31.3696 51.7316 23.4371 31.7743C21.8096 29.5957 22.8284 26.256 20.5735 24.5518C25.2013 27.1861 30.4068 28.4845 35.544 29.8766C55.0305 33.8469 78.9708 34.7458 90.6056 53.5545C96.9913 69.4416 104.7 36.3064 119.751 51.6193Z" fill="white"/>
</svg>
